<svg width="18" height="22" viewBox="0 0 18 22" fill="none" xmlns="http://www.w3.org/2000/svg">
<path d="M17.6045 19.0172L16.3448 4.8319C16.3178 4.51697 16.0524 4.27853 15.7419 4.27853H13.1505C13.1145 1.91207 11.18 0 8.8045 0C6.42904 0 4.49448 1.91207 4.45849 4.27853H1.86708C1.55215 4.27853 1.29121 4.51697 1.26421 4.8319L0.00449908 19.0172C0.00449908 19.0352 0 19.0532 0 19.0712C0 20.6863 1.48016 22 3.30225 22H14.3068C16.1288 22 17.609 20.6863 17.609 19.0712C17.609 19.0532 17.609 19.0352 17.6045 19.0172ZM8.8045 1.21472C10.5096 1.21472 11.8998 2.58241 11.9358 4.27853H5.67321C5.7092 2.58241 7.09939 1.21472 8.8045 1.21472ZM14.3068 20.7853H3.30225C2.15951 20.7853 1.23272 20.0294 1.21472 19.0982L2.42045 5.49775H4.45399V7.34233C4.45399 7.67975 4.72393 7.94969 5.06135 7.94969C5.39877 7.94969 5.66871 7.67975 5.66871 7.34233V5.49775H11.9358V7.34233C11.9358 7.67975 12.2057 7.94969 12.5432 7.94969C12.8806 7.94969 13.1505 7.67975 13.1505 7.34233V5.49775H15.1841L16.3943 19.0982C16.3763 20.0294 15.445 20.7853 14.3068 20.7853Z" fill="#6B422B"/>
</svg>
