<svg width="25" height="22" viewBox="0 0 25 22" fill="none" xmlns="http://www.w3.org/2000/svg">
<path d="M12.5 22C12.1441 22 11.801 21.8725 11.5335 21.6408C10.5236 20.7673 9.5499 19.9464 8.69083 19.2224L8.68645 19.2186C6.16779 17.0956 3.99284 15.2622 2.47955 13.4562C0.787926 11.4371 0 9.52279 0 7.4315C0 5.39963 0.704384 3.52511 1.98326 2.15299C3.2774 0.764638 5.05314 0 6.98395 0C8.42705 0 9.74865 0.451274 10.9119 1.34118C11.499 1.79038 12.0312 2.34014 12.5 2.98139C12.969 2.34014 13.501 1.79038 14.0882 1.34118C15.2515 0.451274 16.5731 0 18.0162 0C19.9469 0 21.7228 0.764638 23.0169 2.15299C24.2958 3.52511 25 5.39963 25 7.4315C25 9.52279 24.2123 11.4371 22.5206 13.456C21.0073 15.2622 18.8326 17.0954 16.3143 19.2182C15.4537 19.9434 14.4785 20.7656 13.4663 21.6412C13.199 21.8725 12.8557 22 12.5 22ZM6.98395 1.44853C5.46703 1.44853 4.07352 2.04734 3.05977 3.13477C2.03094 4.23862 1.46427 5.7645 1.46427 7.4315C1.46427 9.19038 2.12517 10.7634 3.60699 12.5319C5.03922 14.2414 7.16953 16.037 9.63612 18.1162L9.64069 18.12C10.503 18.8469 11.4805 19.671 12.4979 20.5509C13.5214 19.6693 14.5004 18.8439 15.3645 18.1159C17.8308 16.0367 19.961 14.2414 21.3932 12.5319C22.8748 10.7634 23.5357 9.19038 23.5357 7.4315C23.5357 5.7645 22.9691 4.23862 21.9402 3.13477C20.9267 2.04734 19.533 1.44853 18.0162 1.44853C16.905 1.44853 15.8848 1.79793 14.9839 2.48691C14.1811 3.10119 13.6219 3.87771 13.294 4.42105C13.1254 4.70046 12.8286 4.86724 12.5 4.86724C12.1714 4.86724 11.8746 4.70046 11.706 4.42105C11.3783 3.87771 10.8191 3.10119 10.0161 2.48691C9.11522 1.79793 8.09498 1.44853 6.98395 1.44853Z" fill="#6B422B"/>
</svg>
