<svg width="144" height="17" viewBox="0 0 144 17" fill="none" xmlns="http://www.w3.org/2000/svg">
<path d="M0 0.341797H8.61816V0.793457H8.3374C7.5236 0.793457 6.97835 0.94401 6.70166 1.24512C6.43311 1.53809 6.29883 2.09961 6.29883 2.92969V7.87354C7.43815 7.87354 8.17871 7.83691 8.52051 7.76367C8.8623 7.68229 9.17969 7.4585 9.47266 7.09229C9.76562 6.71794 10.0464 6.00179 10.3149 4.94385C10.6323 3.70687 10.9375 2.77913 11.2305 2.16064C11.5316 1.54216 11.9425 1.05387 12.4634 0.695801C12.9924 0.32959 13.6515 0.146484 14.4409 0.146484C15.2222 0.146484 15.8488 0.37028 16.3208 0.817871C16.7928 1.25732 17.0288 1.80257 17.0288 2.45361C17.0288 2.95817 16.8701 3.35693 16.5527 3.6499C16.2354 3.94287 15.8407 4.08936 15.3687 4.08936C14.4409 4.08936 13.9404 3.55225 13.8672 2.47803C13.8346 1.94092 13.6475 1.67236 13.3057 1.67236C12.9395 1.67236 12.6261 1.87988 12.3657 2.29492C12.1053 2.70996 11.8245 3.45459 11.5234 4.52881C11.2305 5.57861 10.9782 6.368 10.7666 6.89697C10.555 7.41781 10.2539 7.85726 9.86328 8.21533C10.3841 8.34554 10.7829 8.51644 11.0596 8.72803C11.3444 8.93962 11.6007 9.21631 11.8286 9.55811C12.0565 9.89176 12.5448 10.7463 13.2935 12.1216L14.978 15.1245C15.2384 15.5721 15.5477 15.9058 15.9058 16.1255C16.272 16.3371 16.7114 16.4429 17.2241 16.4429V16.8945H11.6821L8.27637 10.5469C7.88574 9.83073 7.59684 9.39941 7.40967 9.25293C7.23063 9.09831 6.86035 9.00879 6.29883 8.98438V14.5874C6.29883 15.3849 6.46159 15.8936 6.78711 16.1133C7.12077 16.333 7.73112 16.4429 8.61816 16.4429V16.8945H0V16.4429C0.952148 16.4266 1.57471 16.2882 1.86768 16.0278C2.16878 15.7593 2.31934 15.1896 2.31934 14.3188V3.24707C2.31934 2.27865 2.20133 1.6276 1.96533 1.29395C1.72933 0.960286 1.19222 0.793457 0.354004 0.793457H0V0.341797Z" fill="#6B422B"/>
<path d="M24.4385 1.29395V8.03223H24.7681C25.8179 8.03223 26.5788 7.70264 27.0508 7.04346C27.5228 6.38428 27.8239 5.41178 27.9541 4.12598H28.418V12.793H27.9541C27.8564 11.849 27.6489 11.0758 27.3315 10.4736C27.0223 9.87142 26.6602 9.46859 26.2451 9.26514C25.8301 9.05355 25.2279 8.94775 24.4385 8.94775V13.6108C24.4385 14.5223 24.4751 15.0798 24.5483 15.2832C24.6297 15.4867 24.7762 15.6535 24.9878 15.7837C25.1994 15.9139 25.5412 15.979 26.0132 15.979H27.002C28.5482 15.979 29.7852 15.6209 30.7129 14.9048C31.6488 14.1886 32.3201 13.0981 32.7271 11.6333H33.1787L32.4341 16.8945H18.1274V16.4429H18.6768C19.1569 16.4429 19.5435 16.3574 19.8364 16.1865C20.048 16.0726 20.2108 15.8773 20.3247 15.6006C20.4142 15.4053 20.459 14.8926 20.459 14.0625V3.17383C20.459 2.42513 20.4386 1.96533 20.3979 1.79443C20.3166 1.5096 20.166 1.28988 19.9463 1.13525C19.637 0.907389 19.2139 0.793457 18.6768 0.793457H18.1274V0.341797H31.9824V5.23682H31.5186C31.2826 4.04053 30.9489 3.18197 30.5176 2.66113C30.0944 2.1403 29.4922 1.75781 28.7109 1.51367C28.2552 1.36719 27.4007 1.29395 26.1475 1.29395H24.4385Z" fill="#6B422B"/>
<path d="M41.0522 9.39941V13.9893C41.0522 14.8844 41.1051 15.45 41.2109 15.686C41.3249 15.9139 41.5202 16.097 41.7969 16.2354C42.0817 16.3737 42.5985 16.4429 43.3472 16.4429V16.8945H34.9365V16.4429C35.7015 16.4429 36.2183 16.3737 36.4868 16.2354C36.7635 16.0889 36.9548 15.9017 37.0605 15.6738C37.1745 15.446 37.2314 14.8844 37.2314 13.9893V3.24707C37.2314 2.35189 37.1745 1.79036 37.0605 1.5625C36.9548 1.3265 36.7635 1.13932 36.4868 1.00098C36.2101 0.86263 35.6934 0.793457 34.9365 0.793457V0.341797H42.1509C44.5272 0.341797 46.2321 0.764974 47.2656 1.61133C48.2992 2.45768 48.8159 3.51562 48.8159 4.78516C48.8159 5.85938 48.4823 6.77897 47.8149 7.54395C47.1476 8.30892 46.228 8.82975 45.0562 9.10645C44.2668 9.30176 42.9321 9.39941 41.0522 9.39941ZM41.0522 1.29395V8.44727C41.3208 8.46354 41.5243 8.47168 41.6626 8.47168C42.6554 8.47168 43.4204 8.17871 43.9575 7.59277C44.4946 6.9987 44.7632 6.08317 44.7632 4.84619C44.7632 3.61735 44.4946 2.7181 43.9575 2.14844C43.4204 1.57878 42.6188 1.29395 41.5527 1.29395H41.0522Z" fill="#6B422B"/>
<path d="M56.7871 12.1826H50.9399L50.2441 13.7939C50.0163 14.3311 49.9023 14.7746 49.9023 15.1245C49.9023 15.5884 50.0895 15.9302 50.4639 16.1499C50.6836 16.2801 51.2248 16.3778 52.0874 16.4429V16.8945H46.582V16.4429C47.1761 16.3534 47.6644 16.1092 48.0469 15.7104C48.4294 15.3035 48.9014 14.4694 49.4629 13.208L55.3833 0H55.6152L61.5845 13.5742C62.1541 14.86 62.6221 15.6698 62.9883 16.0034C63.265 16.2557 63.6556 16.4022 64.1602 16.4429V16.8945H56.1523V16.4429H56.4819C57.1248 16.4429 57.5765 16.3534 57.8369 16.1743C58.0159 16.0441 58.1055 15.8569 58.1055 15.6128C58.1055 15.4663 58.0811 15.3158 58.0322 15.1611C58.0159 15.0879 57.8939 14.7827 57.666 14.2456L56.7871 12.1826ZM56.3721 11.2793L53.9062 5.57861L51.3672 11.2793H56.3721Z" fill="#6B422B"/>
<path d="M76.3672 11.2549L80.8594 0.341797H87.5977V0.793457H87.0605C86.5723 0.793457 86.1816 0.878906 85.8887 1.0498C85.6852 1.16374 85.5225 1.35498 85.4004 1.62354C85.3109 1.81885 85.2661 2.32747 85.2661 3.14941V14.0625C85.2661 14.9089 85.3109 15.4378 85.4004 15.6494C85.4899 15.861 85.673 16.0482 85.9497 16.2109C86.2264 16.3656 86.5967 16.4429 87.0605 16.4429H87.5977V16.8945H78.9551V16.4429H79.4922C79.9805 16.4429 80.3711 16.3574 80.6641 16.1865C80.8675 16.0726 81.0303 15.8773 81.1523 15.6006C81.2419 15.4053 81.2866 14.8926 81.2866 14.0625V1.79443L74.939 16.8945H74.646L68.2007 1.9043V13.562C68.2007 14.3758 68.221 14.8763 68.2617 15.0635C68.3675 15.4704 68.5954 15.804 68.9453 16.0645C69.3034 16.3167 69.8608 16.4429 70.6177 16.4429V16.8945H64.9536V16.4429H65.1245C65.4907 16.451 65.8325 16.394 66.1499 16.272C66.4673 16.1418 66.7074 15.9709 66.8701 15.7593C67.0329 15.5477 67.159 15.2507 67.2485 14.8682C67.2648 14.7786 67.2729 14.3636 67.2729 13.623V3.14941C67.2729 2.3112 67.2282 1.79036 67.1387 1.58691C67.0492 1.37533 66.8661 1.19222 66.5894 1.0376C66.3127 0.874837 65.9424 0.793457 65.4785 0.793457H64.9536V0.341797H71.7163L76.3672 11.2549Z" fill="#6B422B"/>
<path d="M100.708 3.07617C100.7 2.18099 100.59 1.57878 100.378 1.26953C100.175 0.952148 99.6582 0.793457 98.8281 0.793457H98.2788V0.341797H107.153V0.793457H106.58C105.815 0.793457 105.306 0.939941 105.054 1.23291C104.81 1.52588 104.688 2.16878 104.688 3.16162V14.0503C104.688 15.0675 104.814 15.7227 105.066 16.0156C105.318 16.3005 105.823 16.4429 106.58 16.4429H107.153V16.8945H98.2788V16.4429H98.8281C99.6012 16.4429 100.106 16.2923 100.342 15.9912C100.586 15.682 100.708 15.035 100.708 14.0503V5.06592L94.873 14.2212C94.873 15.0106 94.9707 15.5802 95.166 15.9302C95.3613 16.272 95.8903 16.4429 96.7529 16.4429H97.3267V16.8945H88.4521V16.4429H89.0015C89.7746 16.4429 90.2832 16.2923 90.5273 15.9912C90.7715 15.682 90.8936 15.035 90.8936 14.0503V3.16162C90.8936 2.16878 90.7959 1.52588 90.6006 1.23291C90.4053 0.939941 89.8722 0.793457 89.0015 0.793457H88.4521V0.341797H97.3267V0.793457H96.7529C96.0042 0.793457 95.5037 0.956217 95.2515 1.28174C94.9992 1.59912 94.873 2.22575 94.873 3.16162V12.2314L100.708 3.07617Z" fill="#6B422B"/>
<path d="M108.032 0.341797H116.65V0.793457H116.37C115.556 0.793457 115.011 0.94401 114.734 1.24512C114.465 1.53809 114.331 2.09961 114.331 2.92969V7.87354C115.47 7.87354 116.211 7.83691 116.553 7.76367C116.895 7.68229 117.212 7.4585 117.505 7.09229C117.798 6.71794 118.079 6.00179 118.347 4.94385C118.665 3.70687 118.97 2.77913 119.263 2.16064C119.564 1.54216 119.975 1.05387 120.496 0.695801C121.025 0.32959 121.684 0.146484 122.473 0.146484C123.254 0.146484 123.881 0.37028 124.353 0.817871C124.825 1.25732 125.061 1.80257 125.061 2.45361C125.061 2.95817 124.902 3.35693 124.585 3.6499C124.268 3.94287 123.873 4.08936 123.401 4.08936C122.473 4.08936 121.973 3.55225 121.899 2.47803C121.867 1.94092 121.68 1.67236 121.338 1.67236C120.972 1.67236 120.658 1.87988 120.398 2.29492C120.138 2.70996 119.857 3.45459 119.556 4.52881C119.263 5.57861 119.01 6.368 118.799 6.89697C118.587 7.41781 118.286 7.85726 117.896 8.21533C118.416 8.34554 118.815 8.51644 119.092 8.72803C119.377 8.93962 119.633 9.21631 119.861 9.55811C120.089 9.89176 120.577 10.7463 121.326 12.1216L123.01 15.1245C123.271 15.5721 123.58 15.9058 123.938 16.1255C124.304 16.3371 124.744 16.4429 125.256 16.4429V16.8945H119.714L116.309 10.5469C115.918 9.83073 115.629 9.39941 115.442 9.25293C115.263 9.09831 114.893 9.00879 114.331 8.98438V14.5874C114.331 15.3849 114.494 15.8936 114.819 16.1133C115.153 16.333 115.763 16.4429 116.65 16.4429V16.8945H108.032V16.4429C108.984 16.4266 109.607 16.2882 109.9 16.0278C110.201 15.7593 110.352 15.1896 110.352 14.3188V3.24707C110.352 2.27865 110.234 1.6276 109.998 1.29395C109.762 0.960286 109.224 0.793457 108.386 0.793457H108.032V0.341797Z" fill="#6B422B"/>
<path d="M135.059 7.86133H137.244C139.604 7.86133 141.313 8.27637 142.371 9.10645C143.437 9.93652 143.97 11.0433 143.97 12.4268C143.97 13.3708 143.701 14.1846 143.164 14.8682C142.627 15.5518 141.947 16.0604 141.125 16.394C140.312 16.7277 139.119 16.8945 137.549 16.8945H128.674V16.4429C129.7 16.4266 130.355 16.2923 130.64 16.04C130.933 15.7796 131.079 15.2181 131.079 14.3555V1.41602C130.16 1.41602 129.435 1.51367 128.906 1.70898C128.385 1.9043 127.946 2.28678 127.588 2.85645C127.23 3.41797 127.039 4.07715 127.014 4.83398H126.562V0.341797H137.451V0.793457C136.686 0.793457 136.149 0.86263 135.84 1.00098C135.531 1.13932 135.323 1.34684 135.217 1.62354C135.111 1.89209 135.059 2.38851 135.059 3.11279V7.86133ZM135.059 8.93555V13.9282C135.059 14.7176 135.164 15.2751 135.376 15.6006C135.596 15.918 136.003 16.0767 136.597 16.0767C137.549 16.0767 138.269 15.7552 138.757 15.1123C139.246 14.4694 139.49 13.6678 139.49 12.7075C139.49 11.7798 139.27 11.0026 138.831 10.376C138.391 9.74121 137.899 9.34245 137.354 9.17969C136.808 9.01693 136.043 8.93555 135.059 8.93555Z" fill="#6B422B"/>
</svg>
