<svg width="15" height="15" viewBox="0 0 15 15" fill="none" xmlns="http://www.w3.org/2000/svg">
<path fill-rule="evenodd" clip-rule="evenodd" d="M14.6328 12.8601L11.3742 9.60154C11.3569 9.58422 11.3365 9.57212 11.3184 9.556C11.9596 8.58335 12.3339 7.41907 12.3339 6.167C12.3339 2.76104 9.57283 0 6.16694 0C2.76104 0 0 2.76104 0 6.16694C0 9.57277 2.76098 12.3339 6.16688 12.3339C7.41901 12.3339 8.58323 11.9596 9.55588 11.3184C9.572 11.3365 9.58404 11.3568 9.60136 11.3741L12.8601 14.6328C13.3496 15.1223 14.1433 15.1223 14.6328 14.6328C15.1223 14.1433 15.1223 13.3497 14.6328 12.8601ZM6.16694 10.196C3.94169 10.196 2.13782 8.39213 2.13782 6.16694C2.13782 3.94169 3.94175 2.13782 6.16694 2.13782C8.39207 2.13782 10.196 3.94175 10.196 6.16694C10.196 8.39213 8.39207 10.196 6.16694 10.196Z" fill="#606060"/>
</svg>
