<svg width="22" height="22" viewBox="0 0 22 22" fill="none" xmlns="http://www.w3.org/2000/svg">
<path d="M11 15.125C14.4121 15.125 17.1875 11.7315 17.1875 7.5625C17.1875 3.3935 14.4114 0 11 0C9.31769 0 7.74538 0.807125 6.57388 2.27219C5.43744 3.69187 4.8125 5.5715 4.8125 7.56319C4.8125 11.7315 7.58794 15.125 11 15.125ZM11 1.37569C13.6531 1.37569 15.8125 4.15113 15.8125 7.56319C15.8125 10.9746 13.6531 13.7507 11 13.7507C8.34694 13.7507 6.1875 10.9746 6.18681 7.56319C6.18681 4.15113 8.34625 1.37569 11 1.37569ZM15.8125 13.75C15.4323 13.75 15.125 14.0573 15.125 14.4375C15.125 14.8177 15.4323 15.125 15.8125 15.125C18.4656 15.125 20.625 17.2844 20.625 19.9375C20.625 20.3163 20.3163 20.625 19.9375 20.625H2.0625C1.68369 20.625 1.375 20.3163 1.375 19.9375C1.375 17.2844 3.53444 15.125 6.1875 15.125C6.56769 15.125 6.875 14.8177 6.875 14.4375C6.875 14.0573 6.56769 13.75 6.1875 13.75C2.77544 13.75 0 16.5254 0 19.9375C0 21.0746 0.925375 22 2.0625 22H19.9375C21.0746 22 22 21.0746 22 19.9375C22 16.5261 19.2246 13.75 15.8125 13.75Z" fill="#6B422B"/>
</svg>
